<svg xmlns="http://www.w3.org/2000/svg" height="24" viewBox="0 -960 960 960" width="24"><path d="M55.386-150.771v-59.999h849.228v59.999H55.386Zm116.923-99.999q-30.308 0-51.308-21t-21-51.307V-738.46q0-30.307 21-51.307 21-21 51.308-21h615.382q30.308 0 51.308 21t21 51.307v415.383q0 30.307-21 51.307-21 21-51.308 21H172.309Zm0-59.999h615.382q4.616 0 8.463-3.846 3.846-3.846 3.846-8.462V-738.46q0-4.616-3.846-8.462-3.847-3.847-8.463-3.847H172.309q-4.616 0-8.463 3.847Q160-743.076 160-738.46v415.383q0 4.616 3.846 8.462 3.847 3.846 8.463 3.846Zm-12.309 0V-750.769v440Z"/></svg>