<svg xmlns="http://www.w3.org/2000/svg" height="24" viewBox="0 -960 960 960" width="24"><path d="M451.693-207.693h54.614v-48.461q46.538-6.308 84.269-34.962 37.731-28.653 37.731-86.884 0-42-24.769-74.307-24.769-32.308-96.769-58.308-63.078-21.539-83.77-37.308-20.692-15.769-20.692-44.077t21.193-46q21.192-17.693 58.5-17.693 31.231 0 50.385 14.731 19.154 14.731 29.461 36.961l49.384-19.845q-12.539-31.923-40.885-54.654-28.346-22.73-62.038-25.346v-48.461h-54.614v48.461q-51.154 9.846-78.577 41.5-27.423 31.654-27.423 70.346 0 45.077 27.308 72.538 27.307 27.462 89 49.616 63.769 23.384 87.115 41.961 23.346 18.577 23.346 49.885 0 37.616-27.154 54.654-27.154 17.039-61.308 17.039-33.769 0-60.423-20.308-26.654-20.307-40.962-59.384l-50.614 20.615q15.538 44.538 44.654 70.768 29.115 26.231 73.038 36.462v50.461ZM480-100.001q-78.769 0-148.115-29.962-69.346-29.961-120.653-81.269-51.308-51.307-81.269-120.653Q100.001-401.231 100.001-480t29.962-148.115q29.961-69.346 81.269-120.653 51.307-51.308 120.653-81.269Q401.231-859.999 480-859.999t148.115 29.962q69.346 29.961 120.653 81.269 51.308 51.307 81.269 120.653Q859.999-558.769 859.999-480t-29.962 148.115q-29.961 69.346-81.269 120.653-51.307 51.308-120.653 81.269Q558.769-100.001 480-100.001ZM480-160q134 0 227-93t93-227q0-134-93-227t-227-93q-134 0-227 93t-93 227q0 134 93 227t227 93Zm0-320Z"/></svg>